HIERARCHY
ROOT Hips
{
  OFFSET 40.9192 92.6879 18.85
  CHANNELS 6 Xposition Yposition Zposition Zrotation Xrotation Yrotation
  JOINT LeftUpLeg
  {
    OFFSET 8.64259 1.95398 -2.38835
    CHANNELS 3 Zrotation Xrotation Yrotation
    JOINT LeftLeg
    {
      OFFSET 43.7702 0 0
      CHANNELS 3 Zrotation Xrotation Yrotation
      JOINT LeftFoot
      {
        OFFSET 40.6238 0 0
        CHANNELS 3 Zrotation Xrotation Yrotation
        JOINT LeftToeBase
        {
          OFFSET 12.7242 0 0
          CHANNELS 3 Zrotation Xrotation Yrotation
          End Site
          {
            OFFSET 0 0 0
          }
        }
      }
    }
  }
  JOINT RightUpLeg
  {
    OFFSET -8.2249 1.95398 -2.59336
    CHANNELS 3 Zrotation Xrotation Yrotation
    JOINT RightLeg
    {
      OFFSET 43.5653 0 0
      CHANNELS 3 Zrotation Xrotation Yrotation
      JOINT RightFoot
      {
        OFFSET 40.6238 0 0
        CHANNELS 3 Zrotation Xrotation Yrotation
        JOINT RightToeBase
        {
          OFFSET 12.7242 0 0
          CHANNELS 3 Zrotation Xrotation Yrotation
          End Site
          {
            OFFSET 0 0 0
          }
        }
      }
    }
  }
  JOINT Spine
  {
    OFFSET 0.165834 0.87714 6.61349
    CHANNELS 3 Zrotation Xrotation Yrotation
    JOINT Spine1
    {
      OFFSET 7.38963 1.71661e-005 0
      CHANNELS 3 Zrotation Xrotation Yrotation
      JOINT Spine2
      {
        OFFSET 11.9445 1.14441e-005 0
        CHANNELS 3 Zrotation Xrotation Yrotation
        JOINT Spine3
        {
          OFFSET 14.7254 4.19617e-005 0
          CHANNELS 3 Zrotation Xrotation Yrotation
          JOINT Spine4
          {
            OFFSET 10.9679 0 0
            CHANNELS 3 Zrotation Xrotation Yrotation
            JOINT RightShoulder
            {
              OFFSET 2.46616 -1.6653 3.69651
              CHANNELS 3 Zrotation Xrotation Yrotation
              JOINT RightArm
              {
                OFFSET 13.0012 0 0
                CHANNELS 3 Zrotation Xrotation Yrotation
                JOINT RightForeArm
                {
                  OFFSET 28.7848 1.52588e-005 0
                  CHANNELS 3 Zrotation Xrotation Yrotation
                  JOINT RightHand
                  {
                    OFFSET 26.5688 1.52588e-005 0
                    CHANNELS 3 Zrotation Xrotation Yrotation
                    End Site
                    {
                      OFFSET 0 0 0
                    }
                  }
                }
              }
            }
            JOINT LeftShoulder
            {
              OFFSET 2.38034 -1.29275 -3.7523
              CHANNELS 3 Zrotation Xrotation Yrotation
              JOINT LeftArm
              {
                OFFSET 16.3182 6.10351e-005 0
                CHANNELS 3 Zrotation Xrotation Yrotation
                JOINT LeftForeArm
                {
                  OFFSET 27.0901 0 0
                  CHANNELS 3 Zrotation Xrotation Yrotation
                  JOINT LeftHand
                  {
                    OFFSET 24.5451 1.52588e-005 0
                    CHANNELS 3 Zrotation Xrotation Yrotation
                    End Site
                    {
                      OFFSET 0 0 0
                    }
                  }
                }
              }
            }
            JOINT Neck
            {
              OFFSET 5.0226 -0.0266342 0
              CHANNELS 3 Zrotation Xrotation Yrotation
              JOINT Head
              {
                OFFSET 6.69363 2.86102e-005 0
                CHANNELS 3 Zrotation Xrotation Yrotation
                End Site
                {
                  OFFSET 0 0 0
                }
              }
            }
          }
        }
      }
    }
  }
}
MOTION
Frames:	17
Frame Time:	0.0416667
-269.676 81.4159 -260.07 82.5622 16.7066 90.9954 -151.307 51.0569 117.256 -61.5637 26.2243 -32.6266 65.9797 13.1096 52.4942 -135.396 38.3574 -78.9954 -151.949 0.731539 111.372 156.481 -5.80979 -80.4812 -2.76002 -24.9747 24.9022 39.1708 40.5952 166.045 -6.87739 7.10873 -92.2047 12.5655 -14.7114 -2.69865 0.978477 -14.8155 -2.03436 -22.1114 -13.2102 -7.06595 -2.09873 -13.2101 -7.06595 96.6169 -58.2565 -89.784 5.14557 -31.4757 46.5911 -27.1894 58.3641 -116.495 -8.90706 5.11251 -59.8199 -128.47 -70.0446 37.1892 -2.13041 14.3148 4.7001 -39.7295 3.7637 -118.311 6.56562 6.00776 64.1779 -16.0962 -2.01784 23.7983 25.6313 -4.25018 -10.3609 
-267.272 83.1729 -255.847 83.747 15.7355 90.2914 -177.982 49.1619 114.597 -72.9492 -1.08021 -4.73531 62.7884 -16.938 33.947 -160.212 5.51098 -86.1535 -150.62 22.2779 114.685 -157.896 -21.8455 -66.1626 -2.28679 -24.1541 20.7157 37.9727 24.0017 165.96 -6.22771 8.57573 -91.8031 9.60292 -13.2306 -2.57205 -2.00071 -13.3307 -1.97702 -24.9776 -11.8389 -6.47972 -4.96494 -11.8389 -6.47971 92.6655 -54.9093 -95.8775 16.9245 -28.096 38.5236 -6.57291 49.2984 -131.322 -10.7655 6.07 -61.1982 -109.757 -58.0615 53.9333 -3.03809 16.5245 -5.591 -37.0531 -0.0783874 -116.455 9.6035 6.63467 54.0543 -0.27346 0.681188 1.71872 19.6682 0.941702 2.71318 
-264.172 85.1135 -251.467 83.8625 14.9011 89.8984 175.379 50.4389 95.7835 -70.0126 -16.1733 14.0013 24.6567 -34.4865 -24.5173 -135.359 -52.2172 -68.4363 -143.022 49.8936 87.247 -13.1638 78.5681 -90.0468 130.132 81.893 -36.0995 37.1902 10.3926 161.625 -5.84997 9.19445 -91.6643 8.35981 -12.4074 -2.53746 -3.25232 -12.5068 -1.98056 -26.1705 -11.0656 -6.18958 -6.15788 -11.0656 -6.18959 91.6816 -47.6587 -98.7272 25.6182 -23.8466 33.9331 -9.93317 45.6849 -125.373 -13.2331 7.48218 -61.327 -101.328 -49.5721 61.9181 -6.22385 22.5477 -14.0716 -31.2853 -5.70451 -113.242 16.6827 6.20312 31.7419 7.05546 -0.0012882 -2.37773 16.8355 1.04762 3.31287 
-260.263 87.0412 -247.318 84.133 14.1593 89.6967 177.434 50.1206 90.0268 -77.6859 29.8461 11.069 54.8072 -4.27954 -25.1161 25.4884 -1.38336 1.79277 -157.689 50.3569 102.462 -79.997 73.169 -23.3762 119.691 56.8342 -20.682 37.8475 12.6997 158.618 -5.58756 9.45828 -91.5189 7.84243 -11.8166 -2.36271 -3.77518 -11.909 -1.83312 -26.6591 -10.5554 -5.84014 -6.64648 -10.5554 -5.84013 92.0713 -43.9247 -98.9054 30.1018 -22.6467 32.1547 -16.6698 41.6045 -115.274 -18.1833 10.3144 -61.2415 -97.9758 -44.7196 65.0597 -6.73337 30.5602 -19.847 -21.6706 -11.5995 -107.27 26.3935 1.21862 0.803186 10.0444 -0.722805 -4.21943 15.0071 0.759663 3.52292 
-255.039 88.4343 -243.133 82.6413 12.9714 90.6121 -176.513 48.4389 85.86 -73.3449 73.0701 7.5288 56.2112 10.2334 13.9831 44.6952 14.326 13.9113 -170.959 44.9761 115.311 -90.4917 71.0848 -6.08319 133.739 41.5168 -22.2706 38.2616 14.4995 157.317 -5.32605 9.27237 -91.5961 8.21407 -11.331 -2.48849 -3.40823 -11.4293 -1.98108 -26.2566 -10.0553 -5.80875 -6.24394 -10.0553 -5.80875 91.8293 -43.5336 -99.3975 29.6827 -21.8932 33.6183 -21.4426 31.8387 -105.754 -25.6741 14.9609 -62.2545 -98.3975 -44.9214 64.4878 -4.51639 39.3055 -22.365 -7.52288 -16.3612 -99.2135 34.4522 -5.76508 -21.3069 9.67671 -0.8709 -3.16893 14.3661 0.218649 2.60319 
-249.464 88.9593 -238.835 76.8715 11.1471 93.4179 -172.921 52.6431 84.7915 -56.9083 69.5878 -5.99622 57.0162 10.7666 12.0263 46.6183 16.0641 13.0722 177.741 36.8684 117.214 -96.8528 53.9824 13.752 152.409 23.7696 -17.9621 38.9263 18.0267 156.571 -4.98483 8.81937 -92.0052 9.0905 -10.838 -3.21236 -2.53755 -10.9686 -2.72703 -25.3311 -9.36938 -6.34289 -5.31841 -9.36937 -6.3429 91.5768 -42.4123 -100.084 29.3602 -20.5714 33.9001 -25.071 16.8845 -96.9933 -35.2706 20.5322 -61.7273 -98.227 -45.164 64.841 -1.23146 46.2892 -26.666 10.5846 -17.5551 -89.9026 40.3208 -8.67832 -26.2626 10.1181 -0.618038 -2.13541 14.1971 0.0390053 1.26174 
-244.436 88.8591 -234.2 77.2485 9.37478 94.1223 -175.137 50.5141 85.3356 -60.6083 60.2694 -0.703366 61.4174 10.5241 8.6415 45.5227 15.6225 16.7611 -178.138 13.8967 108.042 -83.334 23.7292 39.344 161.151 -0.977344 -0.932806 38.1745 15.1245 158.466 -4.89733 8.99781 -91.9541 8.7361 -10.6376 -3.16884 -2.89356 -10.7666 -2.69265 -25.677 -9.19147 -6.23988 -5.66435 -9.19146 -6.23987 91.5724 -42.6828 -100.027 28.6232 -20.6915 33.0146 -24.1672 3.9397 -90.0952 -41.8297 22.9493 -58.7161 -98.7952 -45.6672 64.1662 2.37283 49.4944 -30.0528 25.8412 -14.0277 -83.9276 39.8918 -6.21187 -20.0176 10.0599 -0.342569 -3.25974 14.9728 0.527961 1.1833 
-239.337 88.6553 -229.308 79.0458 7.63397 94.1579 179.529 45.1871 87.6904 -64.5303 54.6914 5.69621 61.919 6.41284 6.42089 46.9973 17.3036 17.6934 -177.904 -2.47352 105.184 -61.4827 14.2267 50.6373 161.454 -20.5642 9.18956 33.7283 -16.8741 160.139 -4.94463 9.34395 -91.7072 8.06124 -10.6173 -2.76854 -3.5678 -10.7287 -2.29353 -26.3637 -9.29177 -5.8539 -6.35108 -9.29175 -5.8539 91.0501 -43.8914 -100.605 28.0858 -20.3267 32.5338 -14.0778 -0.0336811 -90.2027 -36.4321 17.2995 -53.9413 -98.962 -44.9393 63.6302 1.46118 48.7667 -29.3654 34.1059 -11.2424 -85.2987 25.3938 -1.22102 -8.72991 9.44352 0.277131 -5.14806 15.5735 1.49141 1.19596 
-233.93 88.439 -224.739 79.0229 5.55658 94.4792 175.447 39.063 90.7583 -65.3711 52.2003 9.7081 65.91 8.52195 10.1508 42.047 11.0121 6.91053 172.548 -11.6585 111.252 -64.6204 27.9447 39.5288 144.432 -27.9991 4.8088 15.7975 -51.4979 133.664 -5.044 9.52806 -91.6136 7.69575 -10.7718 -2.62523 -3.93171 -10.8767 -2.14328 -26.7414 -9.48178 -5.76558 -6.72872 -9.48178 -5.76558 89.4952 -43.8705 -103.177 28.9575 -18.3574 33.6446 -4.09171 -0.511807 -91.2129 -27.407 9.73312 -44.6471 -99.1358 -44.7826 63.304 0.599695 47.0424 -28.0501 38.0973 -11.2291 -88.4779 3.98645 0.126803 -0.458986 7.6869 1.74787 -3.64691 18.0754 2.17122 -0.95246 
-227.69 87.9049 -220.07 81.1599 -0.27686 95.8096 175.433 29.0918 94.5723 -63.1292 42.8404 10.7961 74.6797 16.1988 12.5733 40.8081 9.48884 0.962774 160.709 -13.2848 108.114 -74.9438 26.1328 27.063 106.544 -27.5376 -4.06595 -29.8936 -41.1283 50.7187 -4.69622 10.0359 -91.4404 6.68942 -9.99427 -2.44996 -4.94418 -10.0923 -2.00348 -27.7149 -8.79351 -5.35977 -7.70228 -8.7935 -5.35977 90.046 -44.8313 -102.017 28.5154 -17.3572 32.8767 -0.0601352 -0.930413 -92.9648 -18.1402 3.48003 -28.767 -99.108 -43.9406 63.0125 1.18258 46.527 -29.2724 37.3906 -12.4537 -90.8486 -9.72739 -0.518318 2.58642 7.60518 3.05071 -4.82959 19.6029 3.81377 -0.159685 
-222.794 88.5491 -216.601 82.5325 -4.09058 95.9436 175.667 20.2433 95.1517 -56.1367 35.3752 10.5493 75.8013 18.1068 12.8468 44.147 12.0377 0.118359 149.629 0.491995 98.4202 -88.4514 13.4115 16.4379 62.8472 -5.07299 -3.19105 9.12817 -2.23756 12.0033 -4.8172 10.357 -91.2165 6.05979 -10.1358 -2.08277 -5.57217 -10.2176 -1.63012 -28.3614 -9.03833 -5.05467 -8.34871 -9.03828 -5.05465 90.4529 -43.8693 -101.597 29.4184 -16.5255 32.1789 -0.524234 -1.52157 -93.4373 -8.31532 0.936744 -19.9538 -99.5018 -43.7881 62.3446 2.58814 47.6018 -30.4712 33.7373 -13.6529 -91.8164 -9.66172 -0.572046 3.17752 9.35631 4.74076 -6.21426 18.6667 5.96788 0.66372 
-218.574 89.8535 -213.424 84.7199 -7.40861 96.2955 176.462 11.0073 96.616 -48.5463 34.0218 10.2274 72.4812 17.1532 13.2079 47.3338 14.9833 3.06104 144.955 9.40554 94.7241 -89.9995 9.19782 9.15224 51.4422 -1.22715 -0.702893 38.3969 0.607132 4.27441 -4.92232 10.671 -91.0302 5.43989 -10.2631 -1.79236 -6.19069 -10.3319 -1.33414 -28.9951 -9.24643 -4.8181 -8.98247 -9.24644 -4.81809 91.1221 -42.7119 -100.776 31.409 -16.1817 32.7623 -1.05168 -1.31434 -93.54 -1.54261 0.0745577 -13.8236 -100.068 -43.1241 61.1938 4.92632 49.3382 -32.9671 26.9113 -13.8111 -91.8747 -4.76163 -0.213725 1.84535 11.7074 5.81046 -7.38309 16.9709 7.40011 0.893516 
-214.222 91.0611 -210.025 86.0016 -12.9814 97.3127 -179.743 3.48645 99.1204 -41.1444 35.1334 8.92436 67.5066 14.4942 13.192 50.3187 17.6104 4.00833 144.917 19.3285 94.7075 -89.0578 5.354 6.27065 58.9669 -1.85893 -1.10164 38.1877 0.365722 -5.84077 -4.65273 10.8044 -90.8435 5.19222 -9.64533 -1.47006 -6.44296 -9.70059 -1.04013 -29.2208 -8.75453 -4.32166 -9.20817 -8.75454 -4.32167 91.668 -43.5624 -99.6593 32.4984 -17.2366 33.9543 -5.27267 -0.776892 -92.2991 -0.824223 -0.00534378 -18.2119 -99.8006 -41.1554 60.7672 6.84031 50.8574 -35.948 18.0116 -13.1978 -91.5482 0.417814 -0.0210919 -1.51944 12.3166 6.74023 -10.2848 16.4325 9.44912 3.46703 
-209.388 91.9868 -206.361 86.1687 -21.1363 98.6492 -174.898 -0.959417 101.907 -36.4473 34.6117 7.1075 59.8639 6.00793 7.15242 57.797 23.8341 4.16368 148.752 28.8698 97.1786 -84.3037 3.06782 5.76944 61.3896 -1.65272 -0.924224 34.4767 0.404694 -7.48548 -3.887 10.5424 -90.6756 5.74422 -8.04854 -1.1128 -5.90178 -8.08966 -0.755178 -28.6079 -7.3401 -3.49263 -8.5953 -7.34008 -3.49262 93.906 -48.7879 -95.0163 29.0325 -19.3661 35.6087 3.36034 -1.75279 -93.0355 1.32011 -0.0395906 -10.3838 -101.78 -39.896 57.0594 5.89511 53.0862 -33.8972 13.3414 -12.9695 -91.4615 4.94383 -0.0113263 -3.1125 9.31398 6.74205 -16.4855 15.3112 11.6469 10.5063 
-203.921 92.75 -201.892 86.9547 -31.3299 98.6447 -169.473 -6.69492 102.998 -30.295 33.1949 3.8722 52.86 -1.39093 -1.05564 53.0433 22.0908 12.5771 155.658 35.625 98.2649 -73.7207 1.49383 6.14283 58.2942 -0.0554679 0.139652 37.3112 0.354985 -6.85961 -3.3041 10.3589 -90.4944 6.13584 -6.80903 -0.76346 -5.51735 -6.83598 -0.461657 -28.1768 -6.26375 -2.78223 -8.16415 -6.26373 -2.78224 93.0359 -46.4093 -96.8091 30.4641 -18.796 35.9844 3.09595 -0.750366 -94.1006 2.49082 -0.098273 -11.1408 -101.11 -40.2015 58.2655 4.42604 52.5304 -34.221 13.3052 -12.6191 -91.1899 6.49971 -0.12548 -4.88071 8.22723 8.75253 -14.2317 13.9513 13.0221 11.4791 
-197.816 93.1266 -196.327 84.8861 -40.4659 96.067 -167.138 -11.7363 101.618 -21.9256 28.3017 1.22794 40.8566 -9.4748 -9.07113 42.7588 12.5545 15.0832 162.073 40.3293 99.2489 -58.7997 -3.69777 6.7024 57.9803 0.33781 0.447889 39.9573 0.158756 -11.4632 -2.84222 9.94008 -90.4669 6.97719 -5.87677 -0.666771 -4.68047 -5.90041 -0.406575 -27.3084 -5.4039 -2.40713 -7.29578 -5.4039 -2.40713 92.5169 -41.3578 -98.7781 33.262 -17.8396 35.9736 1.90752 -0.443298 -95.485 3.01436 -0.106411 -10.425 -100.449 -42.0036 60.1108 2.79215 51.5296 -33.9274 12.8618 -13.0156 -92.3336 5.51248 -0.131244 -4.95133 8.1482 10.6615 -9.12708 12.0057 13.5618 10.1515 
-191.336 93.4385 -189.723 79.0851 -47.6342 90.012 -168.981 -12.3866 97.1915 -20.9205 26.2963 0.220919 35.1653 -13.7276 -9.26908 31.7765 1.81998 8.75244 167.947 43.1871 99.9104 -42.2099 -6.85906 6.42003 56.0828 0.940145 0.938432 44.9174 0.228145 -7.53729 -2.52448 9.41951 -90.4165 8.02565 -5.22141 -0.528338 -3.6348 -5.2396 -0.297386 -26.2438 -4.8207 -2.0767 -6.23114 -4.8207 -2.0767 91.6772 -36.941 -101.318 35.332 -17.5436 34.3241 1.1685 -0.340763 -95.134 3.2995 -0.126014 -10.3762 -99.873 -43.3407 61.5861 2.91695 49.9346 -34.8193 14.7228 -13.559 -93.4971 6.83199 -0.11893 -4.72297 7.3379 12.3472 -5.45542 12.3497 14.3781 9.03765 
